# xmcd CD database file
#
# Track frame offsets:
#	150
#	31637
#	69512
#	101612
#	124712
#	149912
#	188237
#	211187
#	242762
#	284392
#
# Disc length: 4196 seconds
#
# Revision: 0
# Processed by: cddbd v1.5.2PL0 Copyright (c) Steve Scherf et al.
# Submitted via: CDex 1.70beta2
#
DISCID=9310620a
DTITLE=Rob Schneiderman - Smooth Sailing
DYEAR=1990
DGENRE=Jazz
TTITLE0=Harlem Afternoon
TTITLE1=Lost And Found
TTITLE2=Rebound
TTITLE3=It Never Entered My Mind
TTITLE4=Smooth Sailing
TTITLE5=Juvenesence
TTITLE6=Two Hearts That Pass In The Night
TTITLE7=Sonhozinho
TTITLE8=You Stepped Out Of A Dream
TTITLE9=Naughty But Nice
EXTD=YEAR: 1990
EXTT0=
EXTT1=
EXTT2=
EXTT3=
EXTT4=
EXTT5=
EXTT6=
EXTT7=
EXTT8=
EXTT9=
PLAYORDER=
